<?xml version="1.0" encoding="UTF-8"?>
<svg width="145px" height="28px" viewBox="0 0 145 28" version="1.1" xmlns="http://www.w3.org/2000/svg" xmlns:xlink="http://www.w3.org/1999/xlink">
    <title>logo</title>
    <g id="页面-1" stroke="none" stroke-width="1" fill="none" fill-rule="evenodd">
        <g id="网关3" transform="translate(-24.000000, -13.000000)" fill="#FFFFFF">
            <g id="logo" transform="translate(24.000000, 12.999873)">
                <path d="M12.0291991,-5.32907052e-15 L24.0739114,6.93626935 L24.0878822,20.8345725 L12.0609511,27.7966063 L12.0609511,24.7839768 L21.4800453,19.3326123 L21.4678888,8.44403566 L12.0331908,3.01008942 L2.61328016,8.46094586 L2.60819984,8.46403034 L2.62017488,19.3529699 L12.0555986,24.7869161 L12.0608604,24.7840131 L12.059046,27.7968241 L0.0146966391,20.8607362 L-3.99680289e-13,6.96170723 L12.0291991,-5.32907052e-15 Z M7.16150895,10.819067 L7.16767791,16.7207655 L12.0440591,19.4646825 L12.0440591,22.3615533 L4.65927006,18.1724669 L4.65291966,12.2959885 L7.16150895,10.819067 Z M12.0441861,5.07502165 L19.4289751,9.6242665 L19.435144,15.1888495 L16.9263733,16.6461755 L16.9205672,11.0759679 L12.0441861,7.97189252 L12.0441861,5.07502165 Z M12.9184184,11.7188642 L15.6879184,13.4628653 L11.2694917,16.0200805 L8.44646695,14.3071056 L12.9184184,11.7188642 Z" id="形状结合"></path>
                <text id="Go微服务网关" font-family="FZLTZHJW--GB1-0, FZLanTingHeiS-DB-GB" font-size="17" font-weight="normal">
                    <tspan x="32.0878822" y="19">Go微服务网关</tspan>
                </text>
            </g>
        </g>
    </g>
</svg>